<svg id="Capa_1" enable-background="new 0 0 512 512" height="512" viewBox="0 0 512 512" width="512" xmlns="http://www.w3.org/2000/svg" title="logo"><g><g><path d="m394.813 182.588h51.054c19.581 0 35.455 13.964 35.455 31.19v27.198c0 25.785-23.762 46.689-53.073 46.689h-33.436z" fill="#e09380"/><path d="m117.187 292.808h-33.435c-29.311 0-53.073-20.903-53.073-46.689v-27.198c0-17.226 15.874-31.19 35.455-31.19h51.054v105.077z" fill="#ffbeaa"/></g><path d="m154.55 350.419-154.55 54.616v99.465h512v-99.465l-156.83-54.616z" fill="#ff7037"/><path d="m256 504.5h256v-99.465l-156.83-54.616h-99.17z" fill="#ff4c04"/><path d="m396.63 148.599c0-77.927-63.172-141.099-141.099-141.099s-141.099 63.172-141.099 141.099v150.067c0 19.053 9.01 36.826 23.971 47.289l57.016 39.872c10.335 7.227 22.431 11.078 34.797 11.078h50.63c12.366 0 24.462-3.851 34.797-11.078l57.016-39.872c14.962-10.463 23.971-28.236 23.971-47.289v-130.578z" fill="#ffcdbe"/><g><g><path d="m173.34 255.126h-45.877c-22.826 0-41.33-18.504-41.33-41.33v-77.383h128.537v77.383c0 22.826-18.504 41.33-41.33 41.33z" fill="#beebfa"/></g><g><path d="m173.34 270.126h-45.877c-31.061 0-56.33-25.27-56.33-56.33v-92.383h158.537v92.383c0 31.06-25.27 56.33-56.33 56.33zm-72.207-118.713v62.383c0 14.519 11.812 26.33 26.33 26.33h45.877c14.519 0 26.33-11.812 26.33-26.33v-62.383z" fill="#464646"/></g></g><path d="m256 7.506v389.399h24.846c12.366 0 24.462-3.851 34.797-11.078l57.016-39.872c14.962-10.463 23.971-28.236 23.971-47.289v-130.578-19.489c0-77.77-62.92-140.84-140.63-141.093z" fill="#ffbeaa"/><path d="m289.549 276.604-33.549 12.021v-2.474l-33.549-9.548s-103.141 10.543-103.141 67.563h111.686c13.81 0 25.004-9.238 25.004-20.633 0 11.395 11.195 20.633 25.004 20.633h111.686c0-57.02-103.141-67.562-103.141-67.562z" fill="#a05f4b"/><path d="m256 286.151v37.382c0 11.395 11.195 20.633 25.004 20.633h111.686c0-57.02-103.141-67.563-103.141-67.563z" fill="#7d4b3b"/><g><g><path d="m337.722 255.126h45.878c22.826 0 41.33-18.504 41.33-41.33v-77.383h-128.538v77.383c0 22.826 18.504 41.33 41.33 41.33z" fill="#9ee2f8"/></g><g><path d="m383.6 270.126h-45.877c-31.061 0-56.33-25.27-56.33-56.33v-92.383h158.537v92.383c0 31.06-25.27 56.33-56.33 56.33zm-72.207-118.713v62.383c0 14.519 11.812 26.33 26.33 26.33h45.877c14.519 0 26.33-11.812 26.33-26.33v-62.383z" fill="#2d2d2d"/></g></g><path d="m313.174 282.351-33.852 14.548c-15.05 6.468-32.529 6.468-47.58 0l-33.852-14.548 31.744-120.853c2.845-10.831 13.563-18.479 25.898-18.479 12.335 0 23.053 7.648 25.898 18.479z" fill="#ff9f22"/><path d="m255.531 143.018c12.335 0 23.053 7.648 25.898 18.479l31.744 120.853-33.852 14.548c-7.381 3.172-15.345 4.788-23.321 4.849" fill="#ff7037"/><path d="m229.67 121.413v-13.123c0-16.569-13.431-30-30-30h-166.66c0 29.339 8.784 43.123 38.123 43.123z" fill="#a05f4b"/><path d="m281.392 121.413v-13.123c0-16.569 13.431-30 30-30h166.66c0 29.339-8.784 43.123-38.123 43.123z" fill="#7d4b3b"/><path d="m124.194 180.77h52.414v30h-52.414z" fill="#7ed8f6" transform="matrix(.707 -.707 .707 .707 -94.379 163.692)"/><g><path d="m334.454 180.77h52.414v30h-52.414z" fill="#2fc0f0" transform="matrix(.707 -.707 .707 .707 -32.795 312.365)"/></g></g></svg>
